<svg width="20" height="20" viewBox="0 0 20 20" fill="none" xmlns="http://www.w3.org/2000/svg">
<g id="ico_close" clip-path="url(#clip0_841_34281)">
<path id="Vector" d="M15.2471 5.92852C15.5716 5.60405 15.5716 5.07798 15.2471 4.75352C14.9227 4.42905 14.3966 4.42905 14.0721 4.75352L10.0013 8.82435L5.93047 4.75352C5.606 4.42905 5.07994 4.42905 4.75547 4.75352C4.431 5.07798 4.431 5.60405 4.75547 5.92852L8.8263 9.99935L4.75547 14.0702C4.431 14.3946 4.431 14.9207 4.75547 15.2452C5.07994 15.5697 5.606 15.5696 5.93047 15.2452L10.0013 11.1743L14.0721 15.2452C14.3966 15.5696 14.9227 15.5697 15.2471 15.2452C15.5716 14.9207 15.5716 14.3947 15.2471 14.0702L11.1763 9.99935L15.2471 5.92852Z" fill="#525252"/>
</g>
<defs>
<clipPath id="clip0_841_34281">
<rect width="20" height="20" fill="white"/>
</clipPath>
</defs>
</svg>
