<?xml version="1.0" encoding="utf-8"?>
<!-- Generator: Adobe Illustrator 26.3.1, SVG Export Plug-In . SVG Version: 6.00 Build 0)  -->
<svg version="1.1" id="레이어_1" xmlns="http://www.w3.org/2000/svg" xmlns:xlink="http://www.w3.org/1999/xlink" x="0px"
	 y="0px" viewBox="0 0 140 58" style="enable-background:new 0 0 140 58;" xml:space="preserve">
<style type="text/css">
	.st0{fill:#040000;}
	.st1{fill:#FFFFFF;}
</style>
<g>
	<g>
		<path class="st0" d="M118.77,45.55c0.41,0.34,0.72,0.37,0.92,0.37c0.13,0,0.38-0.08,0.55-0.17c1.45-0.77,4.18-3.12,6.2-5.36
			c2.11,1.03,6.54,3.56,7.55,4.53l0.17,0.17c0.02,0.02,0.05,0.02,0.08,0.01l0.21-0.12c0.48-0.29,0.78-0.91,0.78-1.59
			c0-0.36-0.14-0.64-0.42-0.86c-1.03-0.78-5.17-2.83-7.19-3.61c0.03-0.04,0.06-0.08,0.08-0.11c0.75-1.12,1.62-2.87,1.78-3.28
			c0.12-0.31,0.1-0.54-0.1-0.75c-0.15-0.16-0.69-0.57-1.34-0.74c-0.85-0.23-1.33-0.14-1.33-0.14s0.07,0.23,0.12,0.48
			c0.04,0.26,0.05,0.66-0.07,1.08c-0.63,1.84-2.62,4.06-3.01,4.48c-3.35,3.63-5.21,4.65-5.57,4.82c-0.03,0.02-0.05,0.06-0.03,0.09
			C118.24,44.96,118.45,45.28,118.77,45.55z"/>
		<path class="st0" d="M89.85,52l-0.25,0.06c-0.45,0.11-1.81,0.3-2.24,0.32c-0.43,0.02-5.54,0.11-7.21,0.13v-3.59
			c0.01-0.61,0.09-1.05,0.15-1.32c0.06-0.27-0.01-0.38-0.28-0.53c-0.21-0.12-0.69-0.23-1.16-0.27c-0.49-0.04-0.89-0.02-1.13,0.01
			c-0.21,0.03-0.52,0.12-0.52,0.12l0.28,0.45c0.2,0.32,0.35,0.75,0.39,1.1c0.04,0.4,0.09,4.47,0.06,5.21c0,0.63,1.22,0.8,1.94,0.8
			c0.37,0,2.14-0.02,4.09-0.04c2.43-0.02,5.06-0.05,5.77-0.05c0.51,0,0.69-0.34,0.69-0.63c0-0.57-0.17-1.21-0.42-1.57L89.85,52z"/>
		<path class="st0" d="M82.79,39.74c0-2.77-2.07-4.63-5.14-4.63c-3.09,0-5.16,1.86-5.16,4.63c0,2.75,2.07,4.6,5.16,4.6
			C80.72,44.34,82.79,42.49,82.79,39.74z M74.79,39.74c0-1.59,1.15-2.66,2.86-2.66c1.7,0,2.84,1.07,2.84,2.66
			c0,1.55-1.17,2.64-2.84,2.64C75.96,42.38,74.79,41.29,74.79,39.74z"/>
		<path class="st0" d="M52.06,35.68l0.13,0.11l0.17-0.02c0.4-0.06,1.12-0.06,1.79-0.02c1.15,0.07,3.34,0.04,4.1-0.07
			c0.34-0.05,0.55-0.28,0.55-0.62c0-0.38-0.07-0.8-0.2-1.15l-0.11-0.3l-0.32,0.06c-1.41,0.25-4.43,0.16-6.35-0.2l-0.5-0.09l0.05,0.5
			C51.4,34.26,51.66,35.35,52.06,35.68z"/>
		<path class="st0" d="M66.12,52l-0.25,0.06c-0.45,0.11-1.81,0.3-2.24,0.32c-0.43,0.02-5.54,0.11-7.21,0.13v-3.59
			c0.01-0.61,0.09-1.05,0.15-1.32s-0.01-0.38-0.28-0.53c-0.21-0.12-0.69-0.23-1.16-0.27c-0.49-0.04-0.89-0.02-1.13,0.01
			c-0.21,0.03-0.52,0.12-0.52,0.12l0.28,0.45c0.2,0.32,0.35,0.75,0.39,1.1c0.04,0.4,0.09,4.47,0.06,5.21c0,0.63,1.22,0.8,1.94,0.8
			c0.37,0,2.14-0.02,4.09-0.04c2.43-0.02,5.06-0.05,5.77-0.05c0.51,0,0.69-0.34,0.69-0.63c0-0.57-0.17-1.21-0.42-1.57L66.12,52z"/>
		<path class="st0" d="M42.55,52l-0.25,0.06c-0.45,0.11-1.81,0.3-2.24,0.32c-0.43,0.02-5.54,0.11-7.21,0.13v-3.59
			c0.01-0.61,0.09-1.05,0.15-1.32s-0.01-0.38-0.28-0.53c-0.21-0.12-0.69-0.23-1.16-0.27c-0.49-0.04-0.89-0.02-1.13,0.01
			c-0.21,0.03-0.52,0.12-0.52,0.12l0.28,0.45c0.2,0.32,0.35,0.75,0.39,1.1c0.04,0.4,0.09,4.47,0.06,5.21c0,0.63,1.22,0.8,1.94,0.8
			c0.37,0,2.14-0.02,4.09-0.04c2.43-0.02,5.06-0.05,5.77-0.05c0.51,0,0.69-0.34,0.69-0.63c0-0.57-0.17-1.21-0.42-1.57L42.55,52z"/>
		<path class="st0" d="M98.43,35.41L98.43,35.41c0.26,0.26,0.5,0.27,0.7,0.23c1.24-0.2,7.07-0.41,9.23-0.44
			c-0.07,1.58-0.34,4.07-0.62,5.31l-0.09,0.38c0,0,0.64,0.12,0.92,0.16c0.44,0.06,1.03,0.07,1.19-0.44s0.8-3.72,0.93-5.65
			c0.01-0.08,0.11-0.33,0.14-0.4c0.12-0.24,0.09-0.51-0.09-0.69c-0.16-0.16-0.79-0.61-1.15-0.7l-0.1-0.03l-0.1,0.03
			c-0.13,0.04-0.63,0.12-0.79,0.12l-7.8,0.09c-0.86,0.02-2.1-0.02-2.7-0.09l-0.49-0.05l0.07,0.49
			C97.74,34.28,98.09,35.04,98.43,35.41z"/>
		<path class="st0" d="M36.29,34.14c-0.2-0.09-0.54-0.18-0.9-0.24c-0.39-0.06-0.81-0.08-1.1-0.07c-0.36,0.02-0.59,0.1-0.59,0.1
			s0.15,0.24,0.25,0.46c0.1,0.23,0.28,0.62,0.33,1.12c0.05,0.48,0.06,2.52,0.06,2.52v0.12h-5.79c0-0.23,0-0.79,0.01-1.26
			c0.02-0.6,0.04-1.23,0.07-1.91c0.02-0.35,0.03-0.47-0.32-0.62c-0.2-0.09-0.54-0.18-0.9-0.24c-0.39-0.06-0.81-0.08-1.1-0.07
			c-0.36,0.02-0.59,0.1-0.59,0.1s0.15,0.24,0.25,0.46c0.1,0.23,0.28,0.62,0.33,1.12c0.05,0.48,0.06,2.52,0.06,2.52v2.37v5.25
			c0,0.04,0.03,0.07,0.07,0.06c0.15-0.01,0.53-0.04,1.03-0.13c0.49-0.09,1.07-0.23,1.09-0.86c1.92,0.05,3.85,0.05,5.79,0v0.93
			c0,0.04,0.03,0.07,0.07,0.06c0.15-0.01,0.53-0.04,1.03-0.13c0.5-0.09,1.09-0.23,1.09-0.88c0-0.28,0-2.06,0-2.06v-4.83
			c0,0-0.01-0.76,0.01-1.36c0.02-0.6,0.04-1.23,0.07-1.91C36.63,34.41,36.65,34.29,36.29,34.14z M28.55,43.09L28.55,43.09v-3.08
			c1.92,0.05,3.85,0.05,5.79,0v0.39v2.69H28.55z"/>
		<path class="st0" d="M21.27,32.09c-0.04-0.12-0.14-0.2-0.26-0.27c-0.25-0.13-0.75-0.31-1.25-0.37c-0.4-0.06-0.9-0.05-1.04-0.04
			c-0.35,0.03-0.55,0.09-0.55,0.09s0.11,0.15,0.28,0.48c0.18,0.32,0.39,0.96,0.39,1.44c0,0.95,0.03,2.6,0.03,4.69h0v5.48
			c0,0.04,0.03,0.07,0.07,0.06c0.16-0.01,0.56-0.04,1.07-0.13c0.5-0.09,1.09-0.23,1.09-0.88c0-0.28,0-2.06,0-2.06v-2.46l0.01-4.35
			c0-0.34,0.03-0.91,0.11-1.21C21.29,32.34,21.3,32.2,21.27,32.09z"/>
		<path class="st0" d="M14.92,42.66L14.92,42.66L14.92,42.66c-0.72-0.64-3.27-2.26-4.72-3.07c0.43-0.72,0.72-1.29,0.85-1.75
			c0.01-0.04,0.02-0.08,0.03-0.11c0.03-0.11,0.04-0.21,0.05-0.31c0-0.04,0-0.08,0-0.12c0-0.05-0.01-0.09-0.02-0.15
			c-0.02-0.1-0.06-0.22-0.11-0.34c0.13,0,0.25-0.01,0.37-0.01c0.01,0,0.01,0,0.02,0c0.17,0,0.33-0.01,0.47-0.01
			c0.02,0,0.03,0,0.05,0c0.02,0,0.04,0,0.06,0c0.02,0,0.03,0,0.05,0c0.07,0,0.13,0,0.19,0c0.01,0,0.01,0,0.02,0
			c0.03,0,0.06,0,0.09,0c0,0,0,0,0,0c0.03,0,0.05,0,0.08,0c0,0,0,0,0.01,0c0.02,0,0.04,0,0.06,0c0.01,0,0.01,0,0.02,0
			c0.07,0,0.13,0,0.17,0l1.85,0.02c0.51,0,0.69-0.34,0.69-0.63c0-0.5-0.17-1.06-0.43-1.42l-0.16-0.23l0,0l0,0l-0.26,0.08
			c-0.27,0.09-0.97,0.15-2.08,0.2c-1.14,0.05-5.07,0.09-5.7,0.09c-0.84,0-2.03-0.02-2.6-0.09L3.5,34.76l0.05,0.47
			c0.05,0.5,0.29,1.12,0.61,1.57c0.03,0.04,0.07,0.08,0.1,0.11c0.23,0.22,0.48,0.18,0.63,0.15c0.33-0.06,1.43-0.15,2.1-0.17
			l1.7-0.04l0.1,0c-0.01,0.22-0.05,0.42-0.09,0.54c-0.67,2.31-3.87,5.7-6.15,6.86l-0.16,0.08L2.1,44.45
			c-0.03,0.01-0.04,0.04-0.04,0.07c0,0.01,0.01,0.02,0.01,0.03c0.06,0.08,0.16,0.22,0.31,0.38c0,0,0.01,0.01,0.01,0.01
			c0.04,0.05,0.09,0.09,0.14,0.14c0.05,0.05,0.1,0.1,0.16,0.15c0.59,0.51,1.01,0.43,1.39,0.25c1.29-0.61,3.71-2.74,5.04-4.35
			c1.46,1,3.85,2.83,4.77,3.75c0.06,0.06,0.12,0.12,0.16,0.17l0.2,0.22c0.01,0.01,0.02,0.02,0.04,0.02c0,0,0,0,0,0
			c0.01,0,0.02,0,0.02,0c0.01,0,0.02-0.01,0.02-0.01l0.23-0.18c0.35-0.27,0.7-0.86,0.7-1.57C15.27,43.19,15.16,42.89,14.92,42.66z"
			/>
		<path class="st0" d="M20.72,45.28c-0.2-0.09-0.54-0.18-0.9-0.24c-0.39-0.06-0.81-0.08-1.1-0.07c-0.36,0.02-0.59,0.1-0.59,0.1
			s0.15,0.24,0.25,0.46c0.1,0.23,0.27,0.62,0.33,1.12c0.04,0.33,0.05,1.24,0.06,1.77h-7.29c0-0.11,0-0.22,0.01-0.33
			c0.02-0.6,0.01-0.88,0.04-1.56c0.02-0.35,0.03-0.47-0.32-0.62c-0.2-0.09-0.54-0.18-0.9-0.24C9.9,45.6,9.48,45.58,9.2,45.6
			c-0.36,0.02-0.59,0.1-0.59,0.1s0.15,0.24,0.25,0.46c0.1,0.23,0.27,0.62,0.33,1.12c0.05,0.48,0.06,2.17,0.06,2.17v0.42v5.48
			c0,0.04,0.03,0.07,0.07,0.06c0.16-0.01,0.56-0.04,1.07-0.13c0.49-0.09,1.08-0.23,1.09-0.87c2.41,0.08,4.85,0.08,7.3,0v0.94
			c0,0.04,0.03,0.07,0.07,0.06c0.16-0.01,0.56-0.04,1.07-0.13c0.5-0.09,1.09-0.23,1.09-0.88c0-0.28,0-2.06,0-2.06v-2.46v-0.63
			l0-1.46c0-0.11,0-0.22,0.01-0.33c0.02-0.6,0.01-0.88,0.04-1.56C21.06,45.55,21.08,45.43,20.72,45.28z M11.47,52.57
			c0-0.14,0-0.23,0-0.23v-2.08c2.41,0.08,4.85,0.08,7.3,0v2.32H11.47z"/>
		<path class="st0" d="M46.28,39.85c-0.63,0.36-2.16,0.36-2.58,0.36c-0.39,0-0.97,0-1.38,0v-2.11l0.01-4.35
			c0-0.34,0.03-0.91,0.11-1.21c0.06-0.21,0.07-0.35,0.04-0.46c-0.04-0.12-0.14-0.2-0.26-0.27c-0.25-0.13-0.75-0.31-1.25-0.37
			c-0.4-0.06-0.9-0.05-1.04-0.04c-0.35,0.03-0.55,0.09-0.55,0.09s0.11,0.15,0.28,0.48c0.18,0.32,0.39,0.96,0.39,1.44
			c0,0.95,0.03,2.6,0.03,4.69v4.69h0v5.48c0,0.04,0.03,0.07,0.07,0.06c0.16-0.01,0.56-0.04,1.07-0.13c0.5-0.09,1.09-0.23,1.09-0.88
			c0-0.28,0-2.06,0-2.06V42.8v-0.62c0.67,0,1.84,0,2.39,0c0.8,0,0.91,0.02,1.11,0.03c0.2,0.01,0.83,0.09,0.88-0.59
			C46.75,40.75,46.28,39.85,46.28,39.85z"/>
		<path class="st0" d="M69.98,40.32c-0.63,0.36-2.16,0.36-2.58,0.36c-0.39,0-0.97,0-1.38,0v-2.58l0.01-4.35
			c0-0.34,0.03-0.91,0.11-1.21c0.06-0.21,0.07-0.35,0.04-0.46c-0.04-0.12-0.14-0.2-0.26-0.27c-0.25-0.13-0.75-0.31-1.25-0.37
			c-0.4-0.06-0.9-0.05-1.04-0.04c-0.35,0.03-0.55,0.09-0.55,0.09s0.11,0.15,0.28,0.48s0.39,0.96,0.39,1.44
			c0,0.95,0.03,2.6,0.03,4.69v5.24h0v5.48c0,0.04,0.03,0.07,0.07,0.06c0.16-0.01,0.56-0.04,1.07-0.13c0.5-0.09,1.09-0.23,1.09-0.88
			c0-0.28,0-2.06,0-2.06v-2.46v-0.69c0.67,0,1.84,0,2.39,0c0.8,0,0.91,0.02,1.11,0.03c0.2,0.01,0.83,0.09,0.88-0.59
			C70.45,41.22,69.98,40.32,69.98,40.32z"/>
		<path class="st0" d="M90.1,32.09c-0.04-0.12-0.14-0.2-0.26-0.27c-0.25-0.13-0.75-0.31-1.25-0.37c-0.4-0.06-0.9-0.05-1.04-0.04
			C87.2,31.43,87,31.5,87,31.5s0.11,0.15,0.28,0.48s0.39,0.96,0.39,1.44c0,0.71,0.02,1.81,0.03,3.19c-0.71,0.02-1.64,0.03-2.15,0.03
			c-0.47,0-1.24,0-1.6-0.04l-0.43-0.05c0,0-0.01,0.21,0,0.43c0.03,0.62,0.4,1.71,1.05,1.71c0,0,0,0,0,0
			c0.6-0.08,2.07-0.17,3.13-0.21v3.21h0v0c-0.71,0.02-1.65,0.03-2.15,0.03c-0.47,0-1.24,0-1.6-0.04l-0.43-0.05c0,0-0.01,0.21,0,0.43
			c0.03,0.62,0.4,1.71,1.05,1.71c0,0,0,0,0,0c0.6-0.08,2.07-0.17,3.13-0.21h0v5.26c0,0.04,0.03,0.07,0.07,0.06
			c0.16-0.01,0.56-0.04,1.07-0.13c0.5-0.09,1.09-0.23,1.09-0.88c0-0.28,0-2.06,0-2.06v-2.46v-5.24l0.01-4.35
			c0-0.34,0.03-0.91,0.11-1.21C90.12,32.34,90.13,32.2,90.1,32.09z"/>
		<path class="st0" d="M137.38,49.3l-0.15-0.22l-0.26,0.07c-0.44,0.12-1.8,0.28-3.03,0.32c-1.16,0.04-3.85,0.06-6.05,0.08v-0.5V46
			c0-0.25,0.03-0.47,0.07-0.64c0.06-0.23,0.03-0.44-0.31-0.61c-0.16-0.08-0.67-0.24-1.22-0.3c-0.72-0.08-1.26,0.09-1.26,0.09
			l0.23,0.46c0.12,0.24,0.21,0.58,0.23,0.9c0.01,0.2,0.03,1.52,0.04,2.44c0.01,0.44,0.01,0.87,0.02,1.23v0.01
			c-2.31,0.01-5.15,0.01-6.01,0.01c0,0,0,0,0,0c-1.47,0-2.7-0.05-3.56-0.15l-0.43-0.05c0,0,0,0.24,0.07,0.54
			c0.1,0.44,0.64,1.94,1.29,1.94c0,0,0,0,0,0c0.69-0.09,1.97-0.18,3.19-0.22c1.05-0.04,3.52-0.06,5.38-0.08l2.26-0.03
			c2.56-0.02,7.01,0.01,7.99,0.05l1.37,0.04c0.42,0,0.69-0.27,0.69-0.69C137.93,50.44,137.64,49.68,137.38,49.3z"/>
		<path class="st0" d="M114.89,42.09l-0.15-0.22l-0.26,0.07c-0.44,0.12-1.8,0.28-3.03,0.32c-1.18,0.04-3.93,0.06-6.15,0.08
			l-0.58,0.01c-2.38,0.02-6.46,0.02-7.53,0.02c0,0,0,0,0,0c-1.47,0-2.7-0.05-3.56-0.15l-0.43-0.05c0,0,0,0.24,0.07,0.54
			c0.1,0.44,0.64,1.94,1.29,1.94c0,0,0,0,0,0c0.69-0.09,1.97-0.18,3.19-0.22c1.05-0.04,3.52-0.06,5.38-0.08l0.04,0l0,10.01
			c0,0.04,0.03,0.07,0.07,0.06c0.16-0.01,0.56-0.04,1.07-0.13c0.5-0.09,1.09-0.23,1.09-0.88c0-0.28,0-9.09,0-9.09
			c2.56-0.02,7.01,0.01,7.98,0.05l1.37,0.04c0.42,0,0.69-0.27,0.69-0.69C115.45,43.23,115.16,42.47,114.89,42.09z"/>
		<path class="st0" d="M60.65,44.39c-0.68-0.53-3.21-1.95-4.65-2.64c0.02-0.03,0.03-0.04,0.03-0.04c0.34-0.53,0.58-1,0.72-1.43
			l0.02-0.12c0-0.19-0.08-0.61-0.19-0.84l0,0c0.85-0.02,1.55-0.03,1.78-0.03l1.76,0.02c0.51,0,0.69-0.34,0.69-0.63
			c0-0.45-0.17-1.01-0.42-1.37l-0.16-0.23l-0.27,0.08c-0.28,0.09-0.94,0.16-1.95,0.2c-1.06,0.04-5.17,0.09-5.81,0.09
			c-0.88,0-2.02-0.03-2.56-0.09l-0.47-0.05l0.05,0.47c0.05,0.47,0.29,1.07,0.61,1.52c0.26,0.35,0.56,0.29,0.73,0.26
			c0.36-0.06,1.48-0.15,2.07-0.17l1.72-0.04l0.05,0l0,0c-0.01,0.22-0.05,0.61-0.11,0.73c-0.53,1.43-4.2,4.95-5.95,5.69l-0.54,0.23
			c-0.04,0.02-0.05,0.06-0.03,0.1c0.09,0.12,0.3,0.4,0.61,0.68c0.27,0.25,0.65,0.43,0.98,0.43c0.2,0,0.38-0.07,0.47-0.11
			c1.31-0.52,3.48-2.24,5-3.92c1.53,0.9,4.27,2.72,5.01,3.46l0.2,0.2c0.02,0.02,0.06,0.03,0.09,0l0.22-0.18
			c0.32-0.27,0.65-0.86,0.65-1.5C61.02,44.84,60.88,44.56,60.65,44.39z M50.5,39.19L50.5,39.19L50.5,39.19L50.5,39.19z"/>
	</g>
	<g>
		<g>
			<path class="st0" d="M51.79,22.34c-0.01,0-0.01,0.01-0.02,0.01c-0.05,0.08-0.22,0.36-0.36,0.75c-0.14,0.4-0.22,0.87-0.22,1.27
				c0,0.02,0.01,0.03,0.03,0.03l6.57,0h24.4l6.57,0c0.02,0,0.03-0.01,0.03-0.03c0-0.39-0.08-0.87-0.22-1.27
				c-0.13-0.39-0.31-0.67-0.36-0.75c0,0-0.01-0.01-0.02-0.01c-0.31,0.01-1.95,0.07-3.66,0.1l-0.87,0.01v-9.21l4.99,0
				c0.18,0,0.66-0.39,1.08-1.11c0.2-0.34,0.32-0.64,0.35-0.73c0-0.01,0-0.02,0-0.02c0-0.01-0.01-0.01-0.02-0.01
				C88.73,11,86.5,9.51,85.01,7.98c-1.1-1.13-1.72-2-2.08-2.92c-0.38-0.98-0.4-1.95-0.36-2.47c-0.56-0.02-1.23,0.06-1.74,0.19
				c-0.24,0.06-0.45,0.12-0.49,0.41l-0.02,0.08h-0.08c-0.02,0-1.83,0.07-3.71,0.1l-0.77,0.01H64.24l-0.77-0.01
				c-1.88-0.03-3.7-0.1-3.71-0.1l-0.08,0l-0.02-0.08c-0.04-0.3-0.25-0.35-0.49-0.41c-0.51-0.13-1.18-0.2-1.74-0.19
				c0.03,0.52,0.02,1.49-0.36,2.47c-0.36,0.92-0.98,1.8-2.08,2.92c-1.49,1.53-3.71,3.02-5.07,3.39c-0.01,0-0.01,0.01-0.02,0.01
				c0,0,0,0.01,0,0.02c0.04,0.11,0.16,0.4,0.35,0.73c0.42,0.73,0.9,1.11,1.08,1.11l4.99,0v9.21l-0.87-0.01
				C53.74,22.42,52.1,22.36,51.79,22.34C51.79,22.34,51.79,22.34,51.79,22.34z M81.52,22.51h-6.24v-9.26h6.24V22.51z M73.12,22.51
				h-6.24v-9.26h6.24V22.51z M64.72,22.51h-6.24v-9.26h6.24V22.51z M86,11.39H54l0.21-0.17c0.07-0.06,0.15-0.12,0.23-0.19
				c0.73-0.59,1.95-1.59,3.01-2.79c1.14-1.3,1.76-2.51,1.87-2.89l0.02-0.07h21.3l0.02,0.07c0.12,0.38,0.73,1.6,1.87,2.89
				c1.06,1.21,2.28,2.2,3.01,2.79c0.09,0.07,0.16,0.13,0.23,0.19L86,11.39z"/>
		</g>
	</g>
</g>
</svg>
