<svg width="14" height="17" viewBox="0 0 14 17" fill="none" xmlns="http://www.w3.org/2000/svg">
<path id="Vector" d="M12.882 6.13456H11.1416V4.13303C11.1416 1.88456 9.23112 0 6.98037 0C4.72962 0 2.8191 1.89755 2.8191 4.13303V6.13456H1.09178C0.450576 6.13456 -0.0597681 6.69342 0.00566074 7.33028L0.803892 15.5313C0.882407 16.3631 1.58904 17 2.43961 17H11.508C12.3455 17 13.0522 16.3631 13.1438 15.5313L13.9943 7.33028C14.0598 6.69342 13.5494 6.13456 12.9082 6.13456H12.882ZM4.45482 4.13303C4.45482 2.76835 5.60637 1.62462 6.98037 1.62462C8.35438 1.62462 9.50592 2.76835 9.50592 4.13303V6.13456H4.45482V4.13303Z" fill="#0D5611"/>
</svg>
