<svg width="18" height="18" viewBox="0 0 18 18" fill="none" xmlns="http://www.w3.org/2000/svg">
<path d="M15.2455 14.8139C15.2455 14.8139 14.3041 15.7385 14.0734 16.0096C13.6976 16.4106 13.2548 16.6 12.6743 16.6C12.6185 16.6 12.559 16.6 12.5032 16.5963C11.398 16.5258 10.371 16.095 9.60077 15.7274C7.49468 14.7099 5.64534 13.2654 4.10856 11.4347C2.8397 9.90846 1.99131 8.49737 1.42944 6.9823C1.08338 6.05766 0.956869 5.33726 1.01268 4.6577C1.04989 4.22323 1.21734 3.86303 1.52618 3.55482L2.79505 2.28855C2.97738 2.11773 3.17087 2.0249 3.36064 2.0249C3.59506 2.0249 3.78484 2.16601 3.90391 2.28484C3.90763 2.28855 3.91135 2.29226 3.91507 2.29598C4.14205 2.50764 4.35787 2.72673 4.58485 2.96068C4.7002 3.07951 4.81928 3.19833 4.93835 3.32088L5.95419 4.33464C6.34861 4.72826 6.34861 5.09217 5.95419 5.48579C5.84628 5.59348 5.74209 5.70117 5.63418 5.80515C5.32161 6.1245 5.56715 5.87946 5.24342 6.16911C5.23598 6.17653 5.22854 6.18025 5.22482 6.18767C4.90481 6.50703 4.96435 6.81895 5.03132 7.03062C5.03505 7.04176 5.03877 7.0529 5.04249 7.06404C5.30668 7.70274 5.67878 8.30432 6.24437 9.021L6.2481 9.02472C7.27509 10.2873 8.35791 11.2713 9.55235 12.0251C9.70491 12.1217 9.86119 12.1997 10.01 12.2739C10.144 12.3408 10.2705 12.4039 10.3784 12.4708C10.3933 12.4782 10.4082 12.4893 10.4231 12.4968C10.5496 12.5599 10.6687 12.5896 10.7914 12.5896C11.1003 12.5896 11.2938 12.3965 11.357 12.3334L12.0864 11.6055C12.2129 11.4792 12.4139 11.327 12.6483 11.327C12.879 11.327 13.0688 11.4718 13.1841 11.5981C13.1878 11.6018 13.1878 11.6018 13.1915 11.6055L15.2418 13.6516C15.6251 14.0303 15.2455 14.8139 15.2455 14.8139Z" fill="#D4D4D4"/>
<path d="M9.50776 4.18982C10.4827 4.35321 11.3683 4.81368 12.0753 5.51922C12.7822 6.22477 13.2399 7.10856 13.4074 8.08148M9.65662 1C11.3906 1.29336 12.972 2.11402 14.2297 3.36544C15.4874 4.62057 16.3061 6.19877 16.6 7.92922M15.2455 14.8139C15.2455 14.8139 14.3041 15.7385 14.0734 16.0096C13.6976 16.4106 13.2548 16.6 12.6743 16.6C12.6185 16.6 12.559 16.6 12.5032 16.5963C11.398 16.5258 10.371 16.095 9.60077 15.7274C7.49468 14.7099 5.64534 13.2654 4.10856 11.4347C2.8397 9.90846 1.99131 8.49737 1.42944 6.9823C1.08338 6.05766 0.956869 5.33726 1.01268 4.6577C1.04989 4.22323 1.21734 3.86303 1.52618 3.55482L2.79505 2.28855C2.97738 2.11773 3.17087 2.0249 3.36064 2.0249C3.59506 2.0249 3.78484 2.16601 3.90391 2.28484C3.90763 2.28855 3.91135 2.29226 3.91507 2.29598C4.14205 2.50764 4.35787 2.72673 4.58485 2.96068C4.7002 3.07951 4.81928 3.19833 4.93835 3.32088L5.95419 4.33464C6.34861 4.72826 6.34861 5.09217 5.95419 5.48579C5.84628 5.59348 5.74209 5.70117 5.63418 5.80515C5.32161 6.1245 5.56715 5.87946 5.24342 6.16911C5.23598 6.17653 5.22854 6.18025 5.22482 6.18767C4.90481 6.50703 4.96435 6.81895 5.03132 7.03062C5.03505 7.04176 5.03877 7.0529 5.04249 7.06404C5.30668 7.70274 5.67878 8.30432 6.24437 9.021L6.2481 9.02472C7.27509 10.2873 8.35791 11.2713 9.55235 12.0251C9.70491 12.1217 9.86119 12.1997 10.01 12.2739C10.144 12.3408 10.2705 12.4039 10.3784 12.4708C10.3933 12.4782 10.4082 12.4893 10.4231 12.4968C10.5496 12.5599 10.6687 12.5896 10.7914 12.5896C11.1003 12.5896 11.2938 12.3965 11.357 12.3334L12.0864 11.6055C12.2129 11.4792 12.4139 11.327 12.6483 11.327C12.879 11.327 13.0688 11.4718 13.1841 11.5981C13.1878 11.6018 13.1878 11.6018 13.1915 11.6055L15.2418 13.6516C15.6251 14.0303 15.2455 14.8139 15.2455 14.8139Z" stroke="#D4D4D4" stroke-width="1.2" stroke-linecap="round" stroke-linejoin="round"/>
</svg>
