<svg width="28" height="28" viewBox="0 0 28 28" fill="none" xmlns="http://www.w3.org/2000/svg">
<path d="M20.3133 11.4537H18.4513V9.2977C18.4513 6.8757 16.4073 4.8457 13.9993 4.8457C11.5913 4.8457 9.54731 6.8897 9.54731 9.2977V11.4537H7.69931C7.01331 11.4537 6.46731 12.0557 6.53731 12.7417L7.39131 21.5757C7.47531 22.4717 8.23131 23.1577 9.14131 23.1577H18.8433C19.7393 23.1577 20.4953 22.4717 20.5933 21.5757L21.5033 12.7417C21.5733 12.0557 21.0273 11.4537 20.3413 11.4537H20.3133ZM11.2973 9.2977C11.2973 7.8277 12.5293 6.5957 13.9993 6.5957C15.4693 6.5957 16.7013 7.8277 16.7013 9.2977V11.4537H11.2973V9.2977Z" fill="#D4D4D4"/>
</svg>
