<svg width="28" height="28" viewBox="0 0 28 28" fill="none" xmlns="http://www.w3.org/2000/svg">
<g id="Property 1=ico_brand_state, Property 2=off">
<path id="Vector" fill-rule="evenodd" clip-rule="evenodd" d="M20.411 10.1097L16.295 5.4197C15.945 5.0697 15.497 4.8457 15.035 4.8457H8.847C7.909 4.8457 7.125 5.6157 7.125 6.5677V21.4497C7.125 22.3877 7.895 23.1717 8.847 23.1717H19.151C20.089 23.1717 20.873 22.4017 20.873 21.4497V11.2577C20.873 10.7957 20.649 10.4597 20.411 10.1097ZM16.855 19.3637H11.129C10.653 19.3637 10.275 18.9857 10.275 18.5097C10.275 18.0337 10.653 17.6557 11.129 17.6557H16.855C17.331 17.6557 17.709 18.0337 17.709 18.5097C17.709 18.9857 17.331 19.3637 16.855 19.3637ZM16.855 15.3317H11.129C10.653 15.3317 10.275 14.9537 10.275 14.4777C10.275 14.0017 10.653 13.6237 11.129 13.6237H16.855C17.331 13.6237 17.709 14.0017 17.709 14.4777C17.709 14.9537 17.331 15.3317 16.855 15.3317Z" fill="#D4D4D4"/>
</g>
</svg>
