<svg width="28" height="28" viewBox="0 0 28 28" fill="none" xmlns="http://www.w3.org/2000/svg">
<path fill-rule="evenodd" clip-rule="evenodd" d="M5.25 8.16667C5.25 6.55584 6.55584 5.25 8.16667 5.25H10.1111C11.7219 5.25 13.0278 6.55584 13.0278 8.16667V10.1111C13.0278 11.7219 11.7219 13.0278 10.1111 13.0278H8.16667C6.55584 13.0278 5.25 11.7219 5.25 10.1111V8.16667ZM14.9722 8.16667C14.9722 6.55584 16.2781 5.25 17.8889 5.25H19.8333C21.4442 5.25 22.75 6.55584 22.75 8.16667V10.1111C22.75 11.7219 21.4442 13.0278 19.8333 13.0278H17.8889C16.2781 13.0278 14.9722 11.7219 14.9722 10.1111V8.16667ZM5.25 17.8889C5.25 16.2781 6.55584 14.9722 8.16667 14.9722H10.1111C11.7219 14.9722 13.0278 16.2781 13.0278 17.8889V19.8333C13.0278 21.4442 11.7219 22.75 10.1111 22.75H8.16667C6.55584 22.75 5.25 21.4442 5.25 19.8333V17.8889ZM14.9722 17.8889C14.9722 16.2781 16.2781 14.9722 17.8889 14.9722H19.8333C21.4442 14.9722 22.75 16.2781 22.75 17.8889V19.8333C22.75 21.4442 21.4442 22.75 19.8333 22.75H17.8889C16.2781 22.75 14.9722 21.4442 14.9722 19.8333V17.8889Z" fill="#D4D4D4"/>
</svg>
