<svg width="42" height="43" viewBox="0 0 42 43" fill="none" xmlns="http://www.w3.org/2000/svg">
<g id="ico_menu_28px">
<path id="Vector" d="M30.47 17.6806H27.677V14.4466C27.677 10.8136 24.611 7.76855 20.999 7.76855C17.387 7.76855 14.321 10.8346 14.321 14.4466V17.6806H11.549C10.52 17.6806 9.70096 18.5836 9.80596 19.6126L11.087 32.8636C11.213 34.2076 12.347 35.2366 13.712 35.2366H28.265C29.609 35.2366 30.743 34.2076 30.89 32.8636L32.255 19.6126C32.36 18.5836 31.541 17.6806 30.512 17.6806H30.47ZM16.946 14.4466C16.946 12.2416 18.794 10.3936 20.999 10.3936C23.204 10.3936 25.052 12.2416 25.052 14.4466V17.6806H16.946V14.4466Z" fill="#FAFAFA"/>
</g>
</svg>
